<svg width="38" height="38" viewBox="0 0 38 38" fill="none" xmlns="http://www.w3.org/2000/svg">
<g clip-path="url(#clip0_95_10)">
<path d="M28.8606 10.7827C28.8606 9.72972 28.0056 8.87468 26.9526 8.87468L13.4742 8.87468C12.4211 8.87468 11.5661 9.72972 11.5661 10.7827C11.5661 11.8357 12.4211 12.6908 13.4742 12.6908L22.3573 12.6866L9.43483 25.609C8.6893 26.3545 8.6893 27.5592 9.43483 28.3047C10.1804 29.0502 11.385 29.0502 12.1305 28.3047L25.0488 15.3865L25.053 24.2612C25.053 25.3142 25.908 26.1692 26.961 26.1692C28.014 26.1692 28.8691 25.3142 28.8691 24.2612L28.8691 10.7827L28.8606 10.7827Z" fill="white"/>
</g>
<defs>
<clipPath id="clip0_95_10">
<rect width="22.8737" height="30.4983" fill="white" transform="translate(21.5654) rotate(45)"/>
</clipPath>
</defs>
</svg>
